<?xml version="1.0" encoding="utf-8"?>
<!-- Generator: Adobe Illustrator 24.1.2, SVG Export Plug-In . SVG Version: 6.00 Build 0)  -->
<svg version="1.1" id="Layer_1" xmlns="http://www.w3.org/2000/svg" xmlns:xlink="http://www.w3.org/1999/xlink" x="0px" y="0px"
	 viewBox="0 0 47.4 55.7" style="enable-background:new 0 0 47.4 55.7;" xml:space="preserve">
<g>
	<path d="M14.1,15.4c0,2.7,2.5,4.6,6.2,5.4l7.4,1.5c8.7,1.8,19.7,4.5,19.7,15.7c0,11.3-11.4,17.7-22.6,17.7C11,55.7,1.9,48.8,0,37.2
		h12.6c1.4,5.6,5.9,8.2,12.5,8.2c4.3,0,9.2-1.4,9.2-5.9c0-3.5-4.2-5.2-10-6.5l-6.5-1.3C9,29.9,1,25.8,1,16.1C1,5.1,12.9,0,23.4,0
		C33.9,0,44,4.6,45.8,16.5H33.3c-1.3-4-5.2-6.3-10.6-6.3C17.8,10.2,14.1,12,14.1,15.4z"/>
</g>
</svg>
