<?xml version="1.0" encoding="utf-8"?>
<!-- Generator: Adobe Illustrator 24.1.2, SVG Export Plug-In . SVG Version: 6.00 Build 0)  -->
<svg version="1.1" id="Layer_1" xmlns="http://www.w3.org/2000/svg" xmlns:xlink="http://www.w3.org/1999/xlink" x="0px" y="0px"
	 viewBox="0 0 97.7 88.3" style="enable-background:new 0 0 97.7 88.3;" xml:space="preserve">
<g>
	<path d="M14.1,15.4c0,2.7,2.5,4.6,6.2,5.4l7.4,1.5c8.7,1.8,19.7,4.5,19.7,15.7S36,55.7,24.8,55.7C11,55.7,1.9,48.8,0,37.2h12.6
		c1.4,5.6,5.9,8.2,12.5,8.2c4.3,0,9.2-1.4,9.2-5.9c0-3.5-4.2-5.2-10-6.5l-6.5-1.3C9,29.9,1,25.8,1,16.1C1,5.1,12.9,0,23.4,0
		C33.9,0,44,4.6,45.8,16.5H33.3c-1.3-4-5.2-6.3-10.6-6.3C17.8,10.2,14.1,12,14.1,15.4z"/>
	<path d="M50.8,33.5l7.1-7.1l11.1,11.4V0.9h10.2v37l11.2-11.5l7.2,7.1L74.2,56.9L50.8,33.5z"/>
</g>
<g>
	<path d="M4.2,66.3c0,0.6,0.5,1,1.3,1.2l1.6,0.3c1.9,0.4,4.2,1,4.2,3.4s-2.4,3.8-4.9,3.8c-3,0-4.9-1.5-5.3-4h2.7
		c0.3,1.2,1.3,1.8,2.7,1.8c0.9,0,2-0.3,2-1.3c0-0.8-0.9-1.1-2.2-1.4L5,69.8c-1.9-0.4-3.6-1.3-3.6-3.4c0-2.4,2.5-3.5,4.8-3.5
		c2.3,0,4.4,1,4.8,3.5H8.3c-0.3-0.9-1.1-1.4-2.3-1.4C5,65.1,4.2,65.5,4.2,66.3z"/>
	<path d="M23,74.7h-2.7V70h-4.8v4.7h-2.7V63.1h2.7v4.4h4.8v-4.4H23V74.7z"/>
	<path d="M27.6,70.1c0,1.7,0.4,2.6,2.3,2.6c1.9,0,2.3-1.1,2.3-2.8v-6.8h2.7v6.5c0,3.6-1.4,5.3-5,5.3c-3.5,0-5-1.3-5-5.2v-6.6h2.7
		V70.1z"/>
	<path d="M35.9,65.5v-2.4h10.2v2.4h-3.7v9.2h-2.8v-9.2H35.9z"/>
	<path d="M57.8,68.9c0,4.4-3,5.8-6.8,5.8h-3.8V63.1H51C54.8,63.1,57.8,64.5,57.8,68.9z M49.9,65.4v7h1.1c2,0,3.8-0.4,3.8-3.5
		c0-3.1-1.8-3.5-3.8-3.5H49.9z"/>
	<path d="M58.8,68.9c0-3.6,2.4-6,6-6c3.6,0,6,2.4,6,6c0,3.6-2.5,6-6,6C61.3,74.9,58.8,72.6,58.8,68.9z M67.9,68.9
		c0-2.5-1.4-3.7-3.1-3.7s-3.1,1.3-3.1,3.7c0,2.5,1.4,3.7,3.1,3.7S67.9,71.4,67.9,68.9z"/>
	<path d="M83,63.1h2.7l-2.6,11.6h-2.9l-1.8-8.2l-1.7,8.2h-2.9l-2.7-11.6h2.8l1.6,8l1.6-8h2.8l1.7,8L83,63.1z"/>
	<path d="M89.4,66.7v8h-2.6V63.1h3.3l4.7,8v-8h2.6v11.6h-3.3L89.4,66.7z"/>
	<path d="M9.7,80.1c-0.2-0.8-1.1-1.6-2.5-1.6c-1.7,0-3,1.2-3,3.7c0,2.4,1.2,3.8,3,3.8c1.3,0,2.6-0.5,2.6-2v-0.2H7v-2.2h5.5v6.5h-2.1
		l-0.1-1.3c-0.8,1-1.9,1.5-3.6,1.5c-3.4,0-5.5-2.3-5.5-6c0-3.7,2.4-5.9,5.9-5.9c2.6,0,4.7,1.3,5.2,3.8H9.7z"/>
	<path d="M20.8,76.5l4.4,11.6h-3L21.5,86h-4.5l-0.7,2.1h-2.9l4.4-11.6H20.8z M20.8,83.8l-1.5-4.4l-1.5,4.4H20.8z"/>
	<path d="M34.5,85.6v2.4h-8.3V76.5h2.7v9.2H34.5z"/>
	<path d="M43.8,85.6v2.4h-8.3V76.5h2.7v9.2H43.8z"/>
	<path d="M53.8,76.5v2.4h-6.2v2h5.8v2.4h-5.8v2.3h6.2v2.4h-8.9V76.5H53.8z"/>
	<path d="M58.2,83.7v4.4h-2.7V76.5h4.5c3,0,5.3,0.7,5.3,3.6c0,1.7-0.9,2.7-2.3,3.2l2.9,4.8h-3.2l-2.5-4.4H58.2z M58.2,81.4H60
		c1.3,0,2.3-0.2,2.3-1.3c0-1.1-1-1.3-2.3-1.3h-1.8V81.4z"/>
	<path d="M71,80.9l2.6-4.4h3.2l-4.5,7.1v4.5h-2.7v-4.5l-4.4-7.1h3.2L71,80.9z"/>
</g>
</svg>
